# xmcd
#
# Track frame offsets:
#   150
#   16929
#   29147
#   42850
#   56855
#   72404
#   85355
#   99354
#   119575
#   136940
#   145743
#   153216
#   172240
#   203705
#   217631
#   239567
#   254683
#   269401
#   279270
#   295740
#   311103
#   327265
#
# Disc length: 4599 seconds
#
# Revision: 0
# Processed by: cddbd v1.5.2PL0 Copyright (c) Steve Scherf et al.
# Submitted via: uFREEDB ActiveX Control 1.5
#
DISCID=5111f516
DTITLE=Só Dance - Só Dance
DYEAR=1900
DGENRE=Só Dance
TTITLE0=Are On Me...A-Há
TTITLE1=Bobo...Bonde Sertanejo
TTITLE2=Alguém...Bonde Sertanejo
TTITLE3=Por Te Amar Demais...Bonde Sertanejo
TTITLE4=Foi Tudo Culpa do Amor...Bonde Sertanejo
TTITLE5=08...Bonde Sertanejo
TTITLE6=Quero Colo...Bonde Sertanejo
TTITLE7=Love Is All Around...Euro Dance
TTITLE8=Pray...Dj Bobo
TTITLE9=Kiko Rá Rá Rá...Chaves
TTITLE10=Seu Madruga...Chaves
TTITLE11=There Is a Party...Dj Bobo
TTITLE12=Ill Fly With You...Gigi D'Agostinho
TTITLE13=Voglio Vederti Danzare...Gigi D'Agostinho
TTITLE14=Love Generatin...Bob Sinclar
TTITLE15=Cant Get Over You...Kasino
TTITLE16=É Sábado o Dia...Tchê Barbaridade
TTITLE17=O Tchê Chegou...Tchê Barbaridade
TTITLE18=Churrasco Bom Chimarrão...Os Serranos
TTITLE19=Tô Voltando Pra Ficar...Tchê Garotos
TTITLE20=Vida De Campo...Tchê Garotos
TTITLE21=Popstar...Lulu Santos
EXTD=
EXTT0=
EXTT1=
EXTT2=
EXTT3=
EXTT4=
EXTT5=
EXTT6=
EXTT7=
EXTT8=
EXTT9=
EXTT10=
EXTT11=
EXTT12=
EXTT13=
EXTT14=
EXTT15=
EXTT16=
EXTT17=
EXTT18=
EXTT19=
EXTT20=
EXTT21=
PLAYORDER=
